<?xml version="1.0" encoding="UTF-8"?>
<svg width="46px" height="47px" viewBox="0 0 46 47" version="1.1" xmlns="http://www.w3.org/2000/svg" xmlns:xlink="http://www.w3.org/1999/xlink">
    <title>Group 14</title>
    <defs>
        <radialGradient cx="50%" cy="0%" fx="50%" fy="0%" r="111.803399%" id="radialGradient-1">
            <stop stop-color="#2790FF" offset="0%"></stop>
            <stop stop-color="#071B66" offset="100%"></stop>
        </radialGradient>
        <filter id="filter-2">
            <feColorMatrix in="SourceGraphic" type="matrix" values="0 0 0 0 1.000000 0 0 0 0 1.000000 0 0 0 0 1.000000 0 0 0 1.000000 0"></feColorMatrix>
        </filter>
    </defs>
    <g id="Page-1" stroke="none" stroke-width="1" fill="none" fill-rule="evenodd">
        <g id="Updated-Palette" transform="translate(-809.000000, -177.000000)">
            <g id="Group-14" transform="translate(809.000000, 177.500000)">
                <rect id="Rectangle-Copy-21" fill="url(#radialGradient-1)" fill-rule="nonzero" x="0" y="0" width="45.5" height="45.5"></rect>
                <g filter="url(#filter-2)" id="Blueshift-Logo-Copy-3">
                    <g transform="translate(6.250000, 8.750000)">
                        <path d="M25.1971247,7.32136245 C26.4221196,7.32136245 27.5132468,7.55801422 28.4705065,8.03238376 C29.4277662,8.50568731 30.2384089,9.17833266 30.9013723,10.0492538 C31.5653982,10.919109 32.0689954,11.94993 32.4142888,13.1406508 C32.7585198,14.3313717 32.9306353,15.6436164 32.9306353,17.0784511 C32.9306353,18.6657235 32.7266466,20.0877662 32.3186691,21.3424469 C31.9096292,22.5971277 31.3486601,23.6599287 30.6336371,24.5308499 C29.9186141,25.400705 29.0580366,26.0669544 28.0497797,26.527466 C27.0415229,26.9890435 25.9503956,27.2192993 24.7763979,27.2192993 C23.2486073,27.2192993 21.9758025,26.8238137 20.9558588,26.0328424 L20.9558588,22.0236203 C21.6985053,22.7730176 22.5888312,23.1471832 23.6278988,23.1471832 C24.8783923,23.1471832 25.8993984,22.6163157 26.6909172,21.5535147 C27.4813736,20.4907138 27.8776642,19.1145091 27.8776642,17.4238347 C27.8776642,13.5308065 26.4476182,11.5853583 23.5896509,11.5853583 C22.4974612,11.5853583 21.6198847,11.900894 20.9558588,12.5330314 L20.9558588,8.80310102 C22.1394185,7.81491997 23.5535279,7.32136245 25.1971247,7.32136245 Z M19.9677059,0.514750877 L19.9677059,26.9536561 L14.9684706,26.9536561 L14.9684706,0.514750877 L19.9677059,0.514750877 Z" id="Combined-Shape" fill="#002C97"></path>
                        <polygon id="Path" fill="#2160D4" fill-rule="nonzero" points="12.4834706 26.9536561 7.48423529 26.9536561 7.48423529 7.0557193 12.4834706 7.0557193"></polygon>
                        <polygon id="Path-Copy-4" fill="#2790FF" fill-rule="nonzero" points="4.99923529 26.9536561 0 26.9536561 0 13.1781614 4.99923529 13.1781614"></polygon>
                    </g>
                </g>
            </g>
        </g>
    </g>
</svg>