<svg id="Layer_1" data-name="Layer 1" xmlns="http://www.w3.org/2000/svg" viewBox="0 0 1000 356.73"><defs><style>.cls-1{fill:#231f20;}.cls-2{fill:#f99d2a;}</style></defs><title>Druva_Logo</title><path class="cls-1" d="M79.46,201.66c-27.41,0-38.14,17.15-38.14,61.46,0,45.73,9.53,63.95,33.77,63.95,13.51,0,25.83-5,38.94-16.43v-100c-13.11-6.43-23-8.93-34.57-8.93ZM133.1,355.3c-3.58,0-5.56-2.86-7.95-7.14-2-3.22-3.18-7.86-4.37-12.51C98.93,351,82.64,356.73,63.57,356.73c-39.73,0-63.57-33.58-63.57-90,0-35,8-58.6,23.84-75,12.71-12.87,29-20,48.87-20,13.9,0,25.82,3.21,41.32,11.07v-78.6c0-3.58.79-5,4.37-5.72L147,93a16.42,16.42,0,0,1,4-.36c2.38,0,3.17,1.07,3.17,5V301c0,17.87.8,24.66,7.16,34.66,1.19,2.14,3.17,3.93,3.17,5.72,0,1.07-.39,1.78-2.38,2.5l-25.43,10.72a6.47,6.47,0,0,1-3.57.71Z"/><path class="cls-1" d="M295,208.45h-.8c-5.56-1.43-8.34-2.86-14.7-2.86-9.14,0-19.07,5.36-35,21.8v119c0,4.64-.4,5-5.56,5H210.35c-4.77,0-6-.71-6-5V238.1c0-22.5-2-32.87-7.94-44.66-1.2-2.14-3.58-5-3.58-7.14,0-1.43.4-2.5,2.78-3.58l24.24-10a12.59,12.59,0,0,1,3.57-.72c5.17,0,6.76,6.08,9.54,11.44a62.33,62.33,0,0,1,6,17.15c14.3-14.65,26.61-28.94,49.66-28.94,7.15,0,14.3,1.43,18.67,3.93,2,1.07,2.78,2.14,2.78,3.57a10.05,10.05,0,0,1-.79,2.86L299,204.88c-1.59,2.85-2.39,3.57-4,3.57Z"/><path class="cls-1" d="M489.06,343.87c0,1.07-.79,2.14-2.78,2.86l-25.43,8.57a13.27,13.27,0,0,1-3.18.72c-3.57,0-5.56-2.5-7.55-5.72-2.38-3.57-4.37-8.93-5.95-14.65-19.87,15.72-35,21.08-56.82,21.08-43.7,0-56.81-22.51-56.81-58.6v-114c0-3.57,1.19-4.64,5.16-5.36l27.81-6.07a12.15,12.15,0,0,1,3.58-.36c2.38,0,4,1.07,4,4.65v112.9c0,27.52,6.36,36.81,26.22,36.81,13.51,0,27.82-5.36,41.32-15.73V184.15c0-3.57,1.19-4.64,5.17-5.36l27.81-6.07a25.06,25.06,0,0,1,4-.72c2,0,3.18,1.08,3.18,5V304.92c0,17.51,2.38,26.08,8.74,35.73a6.1,6.1,0,0,1,1.59,3.22Z"/><path class="cls-1" d="M601.7,356H577.86c-4,0-4.37,0-6-3.94L506,185.94a11.27,11.27,0,0,1-1.19-4.29c0-1.43,1.19-2.5,4.76-2.86l30.2-4.28h2c2.78,0,4,1.07,5.17,3.92l34.17,99c4,11.79,7.15,23.94,10.33,37.52,4-16.08,6.35-25.73,10.73-37.16l37.34-99.34c1.19-2.85,2.39-3.92,4.77-3.92,1.19,0,2,.35,3.57.35l25.43,4.29c3.18.71,4.37,1.43,4.37,2.86,0,1.07-.4,2.14-1.19,4.29L608.05,352.08c-1.19,3.22-2,3.94-6.35,3.94Z"/><path class="cls-1" d="M725.87,301.71c0,15.36,11.52,26.79,27,26.79,12.32,0,24.23-5.35,37.74-17.15V268.83c-25,.36-64.76,1.79-64.76,32.88Zm114.43,40a2.71,2.71,0,0,1-2,2.5l-24.24,10.72a9.54,9.54,0,0,1-4,1.08c-2.78,0-4.77-2.15-6.75-5.72a68.16,68.16,0,0,1-6.76-16.08C779.51,349.58,764,355.66,743,355.66c-34.17,0-56.42-20-56.42-51.45,0-53.6,57.21-61.1,104.09-61.46V231.32c0-21.8-7.94-29.66-31.38-29.66-13.51,0-27,3.22-45.69,10.36a12.59,12.59,0,0,1-3.58.72,3.65,3.65,0,0,1-3.57-2.5l-6.36-17.51a9.52,9.52,0,0,1-.8-3.22c0-4.64,4.77-6.07,8-7.14A160.92,160.92,0,0,1,764,172c43.7,0,65.55,16.08,65.55,54v70c0,20,2.39,30,9.53,42.16.4,1.07,1.2,2.5,1.2,3.57Z"/><path class="cls-2" d="M927.61,68.53c1.45,2.27,2.79,4.31,4.08,6.4a96.22,96.22,0,0,1,10.8,24,88.73,88.73,0,0,1,3,17.9,92.68,92.68,0,0,1,0,9.43,286.57,286.57,0,0,1-5.13,37c3.2-1.69,6.25-3.15,9.14-4.86a112.89,112.89,0,0,0,17.58-12.91,109.25,109.25,0,0,0,13.8-15.89,115.41,115.41,0,0,0,11.61-21.16,168.87,168.87,0,0,0,6.89-18.18c.23-.73.37-1.48.56-2.23-22.44-13.58-46.22-20.71-72.39-19.5ZM839,129.81a3.08,3.08,0,0,0,.07.94c1.18,2.81,2.26,5.68,3.61,8.41A94.29,94.29,0,0,0,854.15,157a98,98,0,0,0,12.41,12.7,36.57,36.57,0,0,0,3.11,2.43,119.91,119.91,0,0,0,20.8,11.67q7.42,3.27,15,6.06a123.21,123.21,0,0,0,12.23,4c.49-.83,1-1.6,1.42-2.41,1.49-2.93,3-5.87,4.43-8.82a131.45,131.45,0,0,0,7.6-18.89,115.8,115.8,0,0,0,4.08-19.05c.6-3.76,1.06-9.67,1.24-12.19.3-4.37.12-8.79.14-13.19v-2c-40.78,15.3-70.55,18.65-97.69,12.55Zm-32-21.34c.35.12,3.94,2.12,5.44,2.87,4.45,2.22,8.89,4.46,13.41,6.52a78.56,78.56,0,0,0,8.53,3.28,86.37,86.37,0,0,0,26.8,4.23c2.71,0,5.43-.23,8.15-.39a111.2,111.2,0,0,0,13.13-1.67c-.69-1.3-1.33-2.43-1.9-3.6-1.13-2.35-2.18-4.73-3.33-7.07a104.9,104.9,0,0,1-5.24-13.43,130.91,130.91,0,0,1-3.8-14.63c-.9-4.32-1.2-8.68-1.67-13a70.47,70.47,0,0,1-.07-9.42c.08-3.12.16-6.24.53-9.33.2-1.7.22-3.4.45-5.08.52-3.8,1.16-7.59,1.84-11.36.46-2.56,1.09-5.08,1.63-7.63.12-.57.18-1.16.3-1.94a130.11,130.11,0,0,0-13.51,8.41,121.07,121.07,0,0,0-14.9,12.28c-3.56,3.52-7.12,7.09-10.34,10.92a99.2,99.2,0,0,0-12.21,19c-2.3,4.5-4.4,9.1-6.48,13.71-1.81,4-3.85,9-6.76,17.36ZM895.58.47c6.66,2.17,13.27,4.52,19.68,7.32,8.14,3.55,16.17,7.36,23.52,12.44a80.5,80.5,0,0,1,11.41,9.59,102.82,102.82,0,0,1,15.27,19.83,108.54,108.54,0,0,1,8.1,16.83c-31.74-7.34-63.73-7.34-96.65,11a104.6,104.6,0,0,1-1-16c.06-3.82.16-7.64.47-11.45a117.61,117.61,0,0,1,1.41-11.69,87.64,87.64,0,0,1,4.86-16.67,135.71,135.71,0,0,1,6.15-13.09c1.55-2.91,3.29-5.72,5-8.57a12.19,12.19,0,0,1,1.87.47Z"/></svg>