<?xml version="1.0" encoding="UTF-8"?><svg xmlns="http://www.w3.org/2000/svg" xmlns:xlink="http://www.w3.org/1999/xlink" viewBox="0 0 48 48" version="1.1"><g id="surface1"><path d="M32 16.266V18h-2v-2h1.734A17.43 17.43 0 0 0 19.5 11C9.836 11 2 18.836 2 28.5S9.836 46 19.5 46 37 38.164 37 28.5a17.43 17.43 0 0 0-5-12.234zM19.5 41C12.598 41 7 35.402 7 28.5S12.598 16 19.5 16c3.46 0 6.59 1.406 8.855 3.68v-.035h2.082v2.085h-.44A12.39 12.39 0 0 1 32 28.5C32 35.402 26.402 41 19.5 41z" fill="#FFC107"/><path d="M38 8h2v2h-2z" fill="#FFC107"/><path d="M44 6h2v2h-2z" fill="#FFC107"/><path d="M44 2h2v2h-2z" fill="#FFC107"/><path d="M34 8h2v4h-2z" fill="#36464E"/><path d="M32 12h2v2h-2z" fill="#36464E"/><path d="M36 12h2v2h-2z" fill="#36464E"/><path d="M38 6h4v2h-4z" fill="#36464E"/><path d="M38 10h2v2h-2z" fill="#36464E"/><path d="M42 4h2v2h-2z" fill="#36464E"/><path d="M34 14v2h-2v2h-2v-2h-2v2h-2v4h-2c-1.48 2.352-2.395 4.324-4.5 8 0 0-4.762-6.984-7.5-6.984 0 0-1-.094-1 .91s1 1.828 1 1.828 3.7 3.441 5.434 9.375c.183.64.73 1.828 2.285 1.828.914 0 1.734-.73 2.281-1.828.914-1.824 3.926-7.379 6-10.129v-1h2v-2h-2v-2h2v2h2v-2h2v-2h2v-4z" fill="#36464E"/><path d="M30 14h4v2h-4z" fill="#36464E"/><path d="M34 8h4v2h-4z" fill="#36464E"/></g><metadata><rdf:RDF xmlns:rdf="http://www.w3.org/1999/02/22-rdf-syntax-ns#" xmlns:rdfs="http://www.w3.org/2000/01/rdf-schema#" xmlns:dc="http://purl.org/dc/elements/1.1/"><rdf:Description about="https://iconscout.com/legal#licenses" dc:title="symantec" dc:description="symantec" dc:publisher="Iconscout" dc:date="2017-12-15" dc:format="image/svg+xml" dc:language="en"><dc:creator><rdf:Bag><rdf:li>Icons8</rdf:li></rdf:Bag></dc:creator></rdf:Description></rdf:RDF></metadata></svg>